<?xml version="1.0" standalone="no"?>
<!DOCTYPE svg PUBLIC "-//W3C//DTD SVG 20010904//EN"
 "http://www.w3.org/TR/2001/REC-SVG-20010904/DTD/svg10.dtd">
<svg version="1.0" xmlns="http://www.w3.org/2000/svg"
 width="768.000000pt" height="768.000000pt" viewBox="0 0 768.000000 768.000000"
 preserveAspectRatio="xMidYMid meet">
<metadata>
Created by potrace 1.11, written by Peter Selinger 2001-2013
</metadata>
<g transform="translate(0.000000,768.000000) scale(0.100000,-0.100000)"
fill="#000000" stroke="none">
<path d="M3628 7675 c-2 -2 -50 -6 -107 -10 -58 -3 -107 -8 -110 -9 -4 -2 -33
-6 -66 -10 -33 -3 -100 -13 -150 -21 -49 -9 -99 -17 -110 -19 -11 -2 -63 -13
-115 -26 -693 -162 -1335 -518 -1836 -1018 -91 -90 -170 -176 -219 -235 -22
-27 -45 -54 -50 -60 -6 -7 -24 -30 -40 -52 -17 -22 -33 -42 -36 -45 -3 -3 -35
-45 -70 -95 -179 -249 -338 -540 -450 -823 -72 -180 -161 -481 -195 -657 -4
-22 -8 -44 -10 -50 -5 -21 -17 -109 -29 -200 -3 -27 -8 -59 -10 -70 -29 -142
-26 -688 5 -907 6 -40 13 -87 15 -105 3 -28 12 -80 29 -173 26 -147 119 -477
161 -575 8 -16 30 -73 50 -125 65 -165 157 -345 300 -588 37 -63 188 -278 204
-292 3 -3 19 -23 36 -45 127 -173 401 -450 615 -621 598 -479 1341 -774 2090
-831 176 -14 711 -5 739 11 3 2 33 6 66 10 33 3 101 13 150 21 50 9 99 17 110
19 169 28 499 129 720 220 583 241 1144 665 1525 1151 30 39 59 75 65 81 5 6
17 22 25 34 8 12 29 41 46 64 39 52 72 104 154 237 150 248 284 545 369 819
23 74 46 150 52 168 6 18 12 42 15 55 6 32 11 56 24 112 16 67 19 82 26 130 3
22 9 58 14 80 4 22 11 69 15 105 4 36 9 73 11 82 17 97 25 593 11 738 -27 284
-60 469 -130 730 -22 80 -88 283 -97 295 -4 6 -13 28 -20 50 -20 62 -122 290
-178 395 -342 649 -850 1178 -1492 1550 -466 271 -1026 447 -1573 496 -62 5
-544 13 -549 9z"/>
</g>
</svg>
